# File created by Blade
# Date/Time:  Wed Sep 24 20:26:02 2014
# Frame Rate: 120.000 fps
#------------------------------------------------------
:FULLY-SPECIFIED
:DEGREES
329
root -8.252536 32.599620 0.692447 84.747572 -82.975775 -67.226369
Spine -11.637156 6.340132 -0.750553
Head -6.126803 -4.074868 14.511832
LeftShoulder -10.866117 19.217134 12.437649
LeftArm 24.673696 37.153579 -69.590439
LeftForeArm 3.658146 -0.000000 27.653920
LeftHand -26.216778 -0.000000 -1.217899
LeftHandThumb1 -26.253704 0.000000 33.147579
RightShoulder -19.606627 10.580545 -22.965411
RightArm -19.107501 -33.258528 103.167051
RightForeArm -20.820512 -0.000000 20.324880
RightHand -3.118826 -0.000000 14.073077
RightHandThumb1 -24.326973 -0.000000 -32.862282
LeftUpLeg -11.757283 3.648024 -1.827745
LeftLeg -4.048564 -0.000000 0.000000
LeftFoot -11.454681 10.876785 -8.831444
LeftToeBase 6.155972 -0.000000 -0.000000
RightUpLeg -12.299388 -10.769848 -1.845490
RightLeg 4.600384 -0.000000 -0.000000
RightFoot -9.135849 -0.842253 4.111752
RightToeBase -4.140456 -0.000000 0.000000
330
root -8.270117 32.596472 0.699334 84.538593 -82.949296 -66.956366
Spine -11.729512 6.354485 -0.711372
Head -6.144336 -3.993726 14.441607
LeftShoulder -10.862555 19.312482 12.314693
LeftArm 24.614974 37.123571 -69.501456
LeftForeArm 3.664569 -0.000000 27.588294
LeftHand -26.234833 0.000000 -1.313677
LeftHandThumb1 -26.253704 0.000000 33.147579
RightShoulder -19.601226 10.570226 -23.104419
RightArm -19.186051 -33.264226 103.283272
RightForeArm -21.027911 0.000000 20.255456
RightHand -3.040277 -0.000000 14.256057
RightHandThumb1 -24.326973 -0.000000 -32.862282
LeftUpLeg -11.758866 3.486054 -1.795805
LeftLeg -4.094184 -0.000000 0.000000
LeftFoot -11.531430 11.029849 -8.845820
LeftToeBase 6.240626 -0.000000 -0.000000
RightUpLeg -12.041920 -10.826024 -1.810955
RightLeg 4.622480 -0.000000 -0.000000
RightFoot -9.345271 -0.875814 4.226819
RightToeBase -3.919054 -0.000000 0.000000
331
root -8.286121 32.594109 0.706443 84.393540 -82.922738 -66.727287
Spine -11.852505 6.402257 -0.675089
Head -6.152687 -3.909754 14.368710
LeftShoulder -10.830138 19.370945 12.183560
LeftArm 24.525452 37.139405 -69.399988
LeftForeArm 3.539459 -0.000000 27.472603
LeftHand -26.179637 -0.000000 -1.113487
LeftHandThumb1 -26.253704 0.000000 33.147579
RightShoulder -19.593864 10.519900 -23.232219
RightArm -19.209812 -33.245773 103.353220
RightForeArm -21.235199 -0.000000 20.170066
RightHand -2.981583 0.000000 14.279124
RightHandThumb1 -24.326973 -0.000000 -32.862282
LeftUpLeg -11.782532 3.322530 -1.768507
LeftLeg -4.149002 -0.000000 0.000000
LeftFoot -11.545008 11.211447 -8.720905
LeftToeBase 6.207082 -0.000000 -0.000000
RightUpLeg -11.819092 -10.903514 -1.771801
RightLeg 4.702681 -0.000000 -0.000000
RightFoot -9.576171 -0.894398 4.154040
RightToeBase -3.982612 -0.000000 0.000000
332
root -8.298684 32.593440 0.713093 84.326394 -82.873691 -66.538981
Spine -12.024034 6.452254 -0.607895
Head -6.139548 -3.811199 14.287826
LeftShoulder -10.828379 19.419780 12.045768
LeftArm 24.436169 37.165556 -69.303164
LeftForeArm 3.554564 -0.000000 27.356322
LeftHand -26.002161 -0.000000 -1.317308
LeftHandThumb1 -26.253704 0.000000 33.147579
RightShoulder -19.581110 10.474886 -23.373616
RightArm -19.337937 -33.413665 103.498447
RightForeArm -21.224248 -0.000000 20.185518
RightHand -3.019453 -0.000000 14.228683
RightHandThumb1 -24.326973 -0.000000 -32.862282
LeftUpLeg -11.854275 3.185039 -1.721015
LeftLeg -4.216620 -0.000000 0.000000
LeftFoot -11.556046 11.349371 -8.684966
LeftToeBase 6.279826 -0.000000 -0.000000
RightUpLeg -11.612811 -10.862688 -1.706713
RightLeg 4.714936 -0.000000 -0.000000
RightFoot -9.664121 -1.050354 4.387087
RightToeBase -4.133236 -0.000000 0.000000
